HIERARCHY
ROOT Hips
{
  OFFSET -35.4901 99.2528 17.4586
  CHANNELS 6 Xposition Yposition Zposition Zrotation Xrotation Yrotation
  JOINT LeftUpLeg
  {
    OFFSET 8.64259 1.95398 -2.38835
    CHANNELS 3 Zrotation Xrotation Yrotation
    JOINT LeftLeg
    {
      OFFSET 43.7702 0 0
      CHANNELS 3 Zrotation Xrotation Yrotation
      JOINT LeftFoot
      {
        OFFSET 40.6238 0 0
        CHANNELS 3 Zrotation Xrotation Yrotation
        JOINT LeftToeBase
        {
          OFFSET 12.7242 0 0
          CHANNELS 3 Zrotation Xrotation Yrotation
          End Site
          {
            OFFSET 0 0 0
          }
        }
      }
    }
  }
  JOINT RightUpLeg
  {
    OFFSET -8.2249 1.95398 -2.59336
    CHANNELS 3 Zrotation Xrotation Yrotation
    JOINT RightLeg
    {
      OFFSET 43.5653 0 0
      CHANNELS 3 Zrotation Xrotation Yrotation
      JOINT RightFoot
      {
        OFFSET 40.6238 0 0
        CHANNELS 3 Zrotation Xrotation Yrotation
        JOINT RightToeBase
        {
          OFFSET 12.7242 0 0
          CHANNELS 3 Zrotation Xrotation Yrotation
          End Site
          {
            OFFSET 0 0 0
          }
        }
      }
    }
  }
  JOINT Spine
  {
    OFFSET 0.165834 0.87714 6.61349
    CHANNELS 3 Zrotation Xrotation Yrotation
    JOINT Spine1
    {
      OFFSET 7.38963 1.71661e-005 0
      CHANNELS 3 Zrotation Xrotation Yrotation
      JOINT Spine2
      {
        OFFSET 11.9445 1.14441e-005 0
        CHANNELS 3 Zrotation Xrotation Yrotation
        JOINT Spine3
        {
          OFFSET 14.7254 4.19617e-005 0
          CHANNELS 3 Zrotation Xrotation Yrotation
          JOINT Spine4
          {
            OFFSET 10.9679 0 0
            CHANNELS 3 Zrotation Xrotation Yrotation
            JOINT RightShoulder
            {
              OFFSET 2.46616 -1.6653 3.69651
              CHANNELS 3 Zrotation Xrotation Yrotation
              JOINT RightArm
              {
                OFFSET 13.0012 0 0
                CHANNELS 3 Zrotation Xrotation Yrotation
                JOINT RightForeArm
                {
                  OFFSET 28.7848 1.52588e-005 0
                  CHANNELS 3 Zrotation Xrotation Yrotation
                  JOINT RightHand
                  {
                    OFFSET 26.5688 1.52588e-005 0
                    CHANNELS 3 Zrotation Xrotation Yrotation
                    End Site
                    {
                      OFFSET 0 0 0
                    }
                  }
                }
              }
            }
            JOINT LeftShoulder
            {
              OFFSET 2.38034 -1.29275 -3.7523
              CHANNELS 3 Zrotation Xrotation Yrotation
              JOINT LeftArm
              {
                OFFSET 16.3182 6.10351e-005 0
                CHANNELS 3 Zrotation Xrotation Yrotation
                JOINT LeftForeArm
                {
                  OFFSET 27.0901 0 0
                  CHANNELS 3 Zrotation Xrotation Yrotation
                  JOINT LeftHand
                  {
                    OFFSET 24.5451 1.52588e-005 0
                    CHANNELS 3 Zrotation Xrotation Yrotation
                    End Site
                    {
                      OFFSET 0 0 0
                    }
                  }
                }
              }
            }
            JOINT Neck
            {
              OFFSET 5.0226 -0.0266342 0
              CHANNELS 3 Zrotation Xrotation Yrotation
              JOINT Head
              {
                OFFSET 6.69364 2.86102e-005 0
                CHANNELS 3 Zrotation Xrotation Yrotation
                End Site
                {
                  OFFSET 0 0 0
                }
              }
            }
          }
        }
      }
    }
  }
}
MOTION
Frames:	11
Frame Time:	0.0416667
-338.628 83.3705 319.858 59.856 64.6399 125.677 -178.505 1.69928 105.75 -66.1233 22.4494 17.4956 18.2295 -8.23487 -14.2708 106.591 -6.04021 -17.4101 155.817 37.0088 95.9728 -53.2437 -0.729755 15.7544 87.1784 -9.19855 7.9739 16.359 1.78326 -2.13341 -3.30546 7.03677 -91.6658 12.7361 -7.36055 -2.4577 1.0844 -7.46153 -2.12981 -21.5623 -6.28122 -4.56231 -1.54968 -6.28121 -4.56231 119.536 -44.2485 -53.2886 35.953 -27.5978 34.3701 -85.4928 -35.1901 -0.0327616 47.6946 -25.2299 -70.702 -81.1817 -6.47861 86.5743 -79.2417 -13.694 -43.9058 12.2268 1.719 -62.6655 18.0052 -10.0842 -56.2598 70.6158 -17.9744 -22.9782 -60.1312 -10.687 24.6417 
-331.701 81.5757 313.238 74.2395 45.9737 115.861 -173.718 13.3483 103.701 -94.7665 11.1432 9.65029 56.5529 -0.791881 4.57514 85.555 -2.4625 3.48587 163.297 32.003 104.799 -56.7967 -0.55387 8.34265 98.4939 -11.9775 12.8025 14.6485 -1.47513 4.42006 -1.48057 7.6676 -92.085 11.4626 -3.91896 -3.74743 -0.207391 -4.07997 -3.57139 -22.7236 -2.61305 -4.7506 -2.71091 -2.61306 -4.75061 105.206 -47.6762 -77.2645 27.1999 -9.19399 3.52284 -98.9008 -61.7355 -56.7174 47.3201 -9.20858 -27.4883 -86.7377 -33.9322 80.6595 -34.5999 -27.052 -20.8997 -10.6556 -1.17435 -84.659 28.5514 -14.764 -53.5872 57.0646 -2.62982 -19.3286 -41.3422 3.81466 19.3507 
-325.587 79.3801 306.422 78.5122 27.6364 109.572 -163.245 37.5309 94.6643 -113.837 7.06582 7.14678 61.5501 1.07705 8.75662 69.5114 -3.90834 8.13858 173.462 30.9302 103.731 -59.6084 -11.6304 2.7663 102.601 -16.3644 8.27207 17.0829 -0.622743 2.6567 0.266895 7.93335 -91.9208 10.9821 -0.358511 -3.79469 -0.694384 -0.525028 -3.77527 -23.1855 0.797605 -3.72732 -3.17285 0.797617 -3.7273 89.8245 -34.1001 -105.786 33.865 14.5056 -22.3267 -31.2288 11.4026 -87.7812 -26.1932 1.87928 -13.7718 -81.9403 -42.2915 90.2012 -5.88524 -21.5813 7.86613 -4.23271 8.93415 -107.05 43.2987 -21.0024 -52.386 41.3422 9.75235 -2.1167 -20.3762 9.33806 6.09161 
-315.62 80.1138 297.194 80.25 23.5874 103.884 -162.07 52.9033 89.3587 -114.394 8.37675 6.86684 66.4956 3.80329 14.0771 30.856 4.78826 -6.84394 176.252 18.1324 97.4331 -55.6859 -18.277 -0.54355 104.818 -20.7635 0.571176 20.4372 -3.50678 8.64315 1.80466 7.69751 -91.2565 11.5207 3.00249 -2.81331 -0.150127 2.8758 -2.94267 -22.7015 3.70903 -1.78056 -2.68888 3.70906 -1.78056 90.5362 -23.9854 -107.954 41.7357 30.4686 -39.0571 -39.8958 -11.417 -104.392 -39.1538 1.05705 -12.1818 -81.3985 -37.9877 90.7413 7.99166 -5.58286 26.0031 40.7017 -21.7538 -122.248 47.3499 -13.9028 -32.8126 31.6783 6.18858 3.72552 -13.2706 4.11707 1.95389 
-303.315 84.2507 285.887 82.4376 26.5828 99.5901 -170.548 56.4816 90.8096 -96.9961 -4.68464 4.52684 73.5873 6.91344 5.32219 24.9373 7.06507 -10.6781 172.885 1.30005 88.8026 -41.4892 -24.3299 -2.23296 81.7612 -10.8951 -3.63255 43.2225 -3.76257 12.8909 2.84761 7.66216 -90.7434 11.6056 5.31666 -2.03165 -0.056402 5.22212 -2.26418 -22.6782 5.68073 -0.335049 -2.66556 5.68073 -0.335046 95.0527 -10.2637 -103.291 53.1951 35.923 -41.2005 -40.4036 -7.67804 -108.182 -39.5777 1.4862 -14.028 -82.1732 -30.084 88.4643 1.97831 10.3813 37.3185 55.7799 -39.7316 -118.021 43.9994 -11.3934 -30.3926 29.9208 0.172313 5.68054 -15.3175 -1.90702 -1.88662 
-289.885 88.7972 273.935 82.316 33.2271 96.598 -177.375 54.1798 89.7432 -71.3979 -4.56235 2.35716 73.5807 7.21378 4.74096 24.1306 7.06801 -10.3967 170.562 -12.3229 83.9308 -26.8571 -27.412 -5.06148 57.8423 0.788008 -0.65649 33.4395 -3.75511 11.3718 3.11148 7.55225 -89.9312 11.8128 6.22012 -0.533238 0.156601 6.19059 -0.807543 -22.4957 6.09176 1.368 -2.48303 6.09175 1.36799 96.1577 -4.77639 -102.724 50.3905 38.8432 -31.8438 -44.9855 -7.42997 -112.389 -34.0819 0.839296 -14.7447 -82.6329 -20.7873 85.9291 -19.3671 23.5939 46.6418 69.1071 -46.1373 -104.389 39.9271 -11.8204 -34.146 31.0351 -7.20047 -0.628007 -20.2645 -6.37156 -1.92123 
-276.841 91.6009 262.363 83.0695 33.2046 93.6665 -178.839 45.9079 90.1697 -40.9297 3.34738 -0.501962 67.2989 4.81015 3.54963 29.5896 3.30621 -5.69257 170.125 -19.2176 82.7446 -28.9757 -28.4198 -8.62913 59.149 0.159031 -2.96104 16.3061 -2.93158 7.18537 3.63084 7.44412 -89.0966 11.9626 7.64474 0.977481 0.314109 7.68035 0.638074 -22.3756 6.99588 3.24056 -2.36294 6.99587 3.24054 95.2207 -7.29601 -104.32 37.9607 26.2089 -20.558 -47.0708 -2.06368 -108.979 -41.9729 0.175138 -10.3808 -82.8879 -17.7533 84.7618 -32.8643 30.0401 54.9945 76.1733 -46.7271 -94.5079 30.8584 -9.4737 -35.2056 26.7031 -12.0418 -7.71024 -19.3325 -8.41701 -2.01588 
-264.939 91.5917 251.682 82.848 37.4591 98.068 -179.73 39.84 92.8953 -20.3088 13.304 -0.611959 65.8532 3.93777 1.18016 24.8506 -0.749489 1.41257 170.595 -22.4572 87.4889 -32.7369 -14.2639 -2.67697 61.036 -0.17696 -0.48654 21.9855 -3.6243 9.10418 3.27486 7.17604 -89.5705 12.5507 6.71189 0.0948756 0.897095 6.70948 -0.201962 -21.7676 6.37193 2.11594 -1.75495 6.37195 2.11595 94.3107 -11.0878 -105.009 34.3435 4.7225 -12.1523 -41.8242 2.06793 -101.961 -31.3242 2.23611 -18.3518 -82.8096 -26.8784 86.6978 -33.6022 32.2978 52.6743 79.7105 -42.2975 -88.0772 19.7381 -5.15842 -29.7367 23.7198 -11.6862 -6.62776 -17.6477 -8.61026 -2.96548 
-253.364 90.9304 238.784 93.3474 37.8501 89.813 -179.338 27.798 89.5914 -21.6277 5.73665 -0.782649 62.8479 2.41222 2.31689 19.7068 -1.52708 2.92044 164.908 -25.6657 79.0451 -47.8056 -12.9853 -3.08404 67.3839 -4.09632 -3.7841 18.4564 -2.80481 7.11603 2.96702 7.86186 -89.6452 11.1602 6.0703 0.11358 -0.496507 6.06941 -0.154708 -23.1373 5.75456 1.93882 -3.12467 5.75455 1.93882 92.9047 -18.1537 -105.279 37.9252 -14.842 -1.13372 -42.6338 3.2538 -92.6465 -27.6181 1.22613 -14.8853 -82.77 -38.8539 88.4561 -27.7382 31.5832 39.5645 78.259 -34.6583 -85.6858 14.7628 -1.7472 -15.3336 20.3341 -10.3373 -7.56207 -16.6024 -7.39391 -2.00105 
-243.432 88.8854 229.664 90.3208 40.9683 92.5977 -174.648 35.1 88.5146 -45.6966 13.7999 -2.4581 66.7852 3.44102 6.45105 20.2039 3.88013 -4.86685 168.997 -9.36627 83.3172 -72.12 -3.09343 -1.274 71.1312 -6.33933 -5.20922 12.4719 -2.35092 6.08355 1.93988 7.43816 -89.6076 11.9977 4.04197 0.344879 0.332962 4.05324 0.166363 -22.2455 3.75108 1.54527 -2.23282 3.75111 1.54528 92.3669 -25.0242 -103.693 43.7127 -21.9969 9.04279 -41.0285 -10.4412 -74.7398 -30.6108 1.60217 -15.8442 -83.2598 -49.9443 88.846 -17.343 27.3074 18.479 75.7078 -30.5652 -86.7699 12.5952 -0.676843 -8.78661 17.6547 -8.55289 -12.1391 -14.6793 -4.95067 1.71382 
-234.514 86.8786 219.915 94.5855 43.4935 84.2516 -172.191 26.8938 82.0922 -56.0261 14.2815 -3.27503 80.039 10.2058 6.63564 20.1371 2.23112 -2.41756 172.3 5.16122 80.7817 -91.0205 -1.16418 -1.8758 79.3883 -10.8971 -6.3704 10.4707 -2.77402 6.76726 0.6242 7.86898 -89.0454 11.1188 1.6854 1.73302 -0.551917 1.76001 1.65716 -23.0837 1.08677 2.15934 -3.07103 1.08676 2.15934 92.4675 -26.1873 -103.085 48.3644 -14.6176 18.2443 -41.8473 -23.9559 -65.7967 -28.4265 0.967218 -15.4706 -82.5631 -55.1833 90.3621 -6.4001 21.429 -11.3841 76.6625 -25.1876 -87.347 12.0226 -0.315058 -6.18368 16.7052 -4.72435 -11.521 -13.3015 -1.37888 0.731545 
